<?xml version="1.0" standalone="no"?>
<!DOCTYPE svg PUBLIC "-//W3C//DTD SVG 20010904//EN"
 "http://www.w3.org/TR/2001/REC-SVG-20010904/DTD/svg10.dtd">
<svg version="1.0" xmlns="http://www.w3.org/2000/svg"
 width="906.000000pt" height="374.000000pt" viewBox="0 0 906.000000 374.000000"
 preserveAspectRatio="xMidYMid meet">

<g transform="translate(0.000000,374.000000) scale(0.100000,-0.100000)"
fill="#000000" stroke="none">
<path d="M1851 3360 c-64 -7 -106 -19 -178 -50 -52 -23 -127 -48 -166 -54 -46
-8 -90 -24 -122 -44 -27 -17 -79 -43 -115 -58 -36 -16 -90 -49 -120 -75 -30
-26 -81 -61 -113 -78 -32 -17 -88 -59 -125 -95 -37 -36 -91 -83 -120 -106 -29
-23 -59 -55 -68 -71 -8 -16 -42 -60 -76 -97 -34 -37 -70 -86 -80 -110 -11 -24
-35 -57 -53 -75 -32 -30 -104 -140 -166 -252 -40 -74 -77 -197 -90 -305 -15
-126 -12 -426 6 -454 7 -12 15 -36 19 -54 3 -18 28 -59 59 -95 30 -35 64 -78
77 -95 12 -17 37 -36 54 -43 17 -7 51 -26 76 -43 37 -26 68 -36 170 -54 211
-37 273 -45 327 -39 29 3 55 1 59 -4 3 -6 91 -8 217 -6 186 3 222 6 292 27 88
26 182 37 196 23 11 -11 -22 -147 -56 -233 -14 -36 -34 -97 -45 -137 -10 -40
-24 -82 -31 -94 -10 -20 -27 -77 -73 -254 -14 -55 -9 -93 15 -108 27 -17 47
-1 80 65 17 35 40 68 49 75 12 8 19 30 22 67 3 39 12 62 30 85 15 18 32 55 39
88 7 32 18 65 24 73 26 31 74 142 89 202 9 35 32 107 52 161 l37 98 76 56 c42
31 105 69 140 85 65 30 130 69 166 99 11 9 42 24 68 34 26 10 56 28 65 40 10
13 36 32 58 43 22 11 69 47 105 79 35 32 76 67 91 78 18 14 39 53 67 126 23
58 54 125 70 150 25 40 30 62 45 200 21 200 21 350 0 415 -9 27 -21 53 -25 58
-5 6 -9 18 -9 29 0 10 -20 44 -44 75 -24 32 -47 67 -51 80 -4 13 -15 26 -25
30 -20 8 -114 121 -137 165 -8 16 -29 35 -46 43 -54 25 -190 120 -232 164 -29
29 -53 44 -85 51 -45 10 -89 35 -163 94 -37 29 -44 30 -140 32 -56 0 -140 -3
-186 -7z m192 -187 c26 -9 47 -23 47 -30 0 -14 -88 -103 -102 -103 -4 0 -8 -8
-8 -17 0 -10 -12 -42 -25 -72 -29 -61 -24 -71 34 -71 27 0 40 8 65 37 17 21
54 61 83 90 29 29 59 66 68 83 12 24 22 30 48 30 64 -1 135 -45 330 -208 66
-56 85 -80 127 -156 143 -265 187 -456 145 -633 -16 -68 -85 -228 -122 -283
-13 -19 -56 -72 -96 -117 -61 -69 -80 -85 -126 -100 -34 -11 -69 -33 -97 -60
-24 -24 -49 -43 -57 -43 -8 0 -48 -26 -88 -58 -84 -67 -182 -113 -201 -94 -7
7 -14 68 -18 148 -7 136 -8 137 -51 223 -34 65 -55 93 -89 118 -63 46 -62 45
-93 82 -21 25 -40 36 -75 43 -60 11 -144 -6 -178 -36 -25 -21 -26 -24 -13 -64
8 -29 18 -42 30 -42 10 0 21 -5 24 -10 3 -5 17 -10 29 -10 13 0 29 -7 36 -15
7 -8 20 -15 30 -15 11 0 20 -10 23 -29 4 -20 15 -32 35 -39 20 -7 32 -19 36
-38 4 -15 16 -39 27 -52 10 -14 19 -32 19 -41 0 -9 7 -29 15 -45 18 -33 22
-246 5 -246 -5 0 -10 -7 -10 -15 0 -19 -31 -35 -67 -35 -16 0 -34 -5 -41 -12
-42 -42 -167 -57 -492 -59 -227 -1 -239 0 -375 29 -77 17 -158 34 -180 38 -46
7 -190 97 -207 128 -6 12 -24 37 -39 56 -42 53 -51 113 -43 280 3 80 10 150
14 155 4 6 49 99 99 209 165 360 239 460 546 731 83 72 156 139 164 148 7 10
21 17 31 17 9 0 73 29 141 64 68 35 178 83 244 106 66 23 127 46 135 52 22 14
208 0 263 -19z"/>
<path d="M3455 2940 c-3 -5 -4 -10 0 -10 3 0 -2 -17 -11 -37 -18 -44 -20 -62
-33 -363 -6 -124 -15 -250 -21 -280 -14 -81 -33 -622 -24 -715 4 -44 8 -143
10 -220 1 -77 3 -148 3 -158 2 -29 28 -30 64 -3 l35 27 -3 87 c-1 48 -7 107
-14 130 -10 39 -23 161 -23 217 0 11 2 112 5 225 6 231 12 309 33 460 8 58 14
168 13 246 -1 78 2 147 6 154 5 7 7 33 6 57 0 25 5 67 13 93 17 58 12 86 -17
94 -30 8 -35 7 -42 -4z"/>
<path d="M8245 2615 c-35 -34 -32 -73 8 -111 17 -18 72 -69 120 -115 48 -46
98 -101 109 -121 12 -21 28 -38 35 -38 8 0 16 -7 20 -16 3 -9 27 -35 52 -58
25 -23 66 -61 91 -84 l45 -42 -25 -21 c-29 -24 -233 -145 -306 -182 -28 -14
-56 -33 -63 -41 -8 -9 -19 -16 -25 -16 -7 0 -41 -23 -77 -50 -35 -28 -86 -61
-114 -74 -27 -12 -80 -44 -118 -69 -37 -26 -87 -57 -112 -68 -100 -47 -132
-112 -84 -173 26 -32 46 -33 109 -1 27 14 55 25 62 25 8 0 35 18 62 40 26 22
51 40 55 40 4 0 33 23 66 50 33 28 64 50 70 50 5 0 30 14 55 30 25 16 54 30
66 30 11 0 31 11 44 25 13 13 44 32 69 42 25 9 65 34 88 55 24 21 47 38 52 38
5 0 33 19 62 42 29 23 82 57 118 75 89 46 121 78 121 120 0 28 -8 38 -55 73
-30 22 -55 48 -55 57 0 8 -15 30 -33 47 -18 17 -36 39 -40 49 -3 9 -22 27 -41
38 -19 11 -38 29 -41 40 -4 11 -20 28 -36 38 -49 30 -121 102 -135 136 -18 43
-92 119 -142 144 -51 26 -48 26 -77 -4z"/>
<path d="M4400 2479 c-166 -19 -457 -61 -555 -81 -76 -15 -107 -27 -127 -46
-16 -14 -28 -31 -28 -38 0 -24 22 -26 45 -4 28 26 100 44 320 77 175 26 241
33 500 52 140 11 179 20 161 38 -11 12 -218 12 -316 2z"/>
<path d="M4359 2363 c-14 -16 -45 -53 -68 -83 -23 -30 -76 -89 -116 -131 -115
-117 -165 -200 -165 -271 0 -40 48 -88 88 -88 39 0 89 18 96 35 8 21 -8 26
-43 14 -25 -9 -36 -8 -56 5 -57 37 -21 116 124 273 136 147 181 208 181 245 0
35 -10 35 -41 1z"/>
<path d="M4065 2314 c-17 -20 -90 -99 -162 -176 -73 -77 -133 -144 -133 -150
0 -6 -13 -27 -29 -47 -44 -56 -75 -121 -62 -134 14 -14 61 7 61 29 0 30 100
160 220 284 120 125 177 200 165 220 -11 18 -30 10 -60 -26z"/>
<path d="M4683 2200 c-39 -8 -83 -40 -157 -116 -28 -29 -96 -152 -103 -186 -3
-16 0 -42 7 -59 l13 -31 81 4 c95 4 155 30 222 94 100 97 122 171 71 238 -23
30 -77 69 -89 65 -2 -1 -22 -5 -45 -9z m91 -85 c26 -39 19 -67 -32 -130 -64
-80 -126 -118 -203 -123 -57 -4 -59 -4 -59 20 0 27 83 159 127 200 30 29 92
56 129 57 13 1 29 -10 38 -24z"/>
<path d="M6266 2169 c-19 -29 -24 -44 -17 -53 7 -8 -1 -36 -28 -93 -21 -45
-43 -88 -50 -96 -16 -20 -118 -64 -166 -72 -35 -5 -44 -2 -64 19 -29 31 -23
44 65 134 109 112 145 182 94 182 -16 0 -159 -147 -201 -207 -33 -48 -232
-145 -260 -127 -19 11 -7 45 38 106 26 34 50 65 53 68 3 3 24 28 48 57 45 55
53 87 25 97 -20 8 -40 -14 -133 -143 -66 -91 -84 -104 -233 -155 -98 -34 -114
-34 -122 3 -10 45 52 151 127 219 29 26 38 42 36 61 -5 45 -35 37 -101 -27
-240 -232 -336 -295 -393 -257 -37 24 -31 54 16 72 43 17 48 24 27 41 -22 18
-87 -7 -108 -42 -37 -61 7 -126 90 -134 65 -6 142 31 214 103 29 29 47 41 43
30 -32 -88 -21 -148 28 -153 34 -4 188 42 232 69 40 24 40 24 47 -11 4 -16 17
-36 30 -45 31 -20 108 -6 191 35 44 22 62 27 65 18 2 -7 17 -25 32 -40 41 -41
95 -37 234 18 18 7 18 6 7 -9 -18 -22 -7 -37 27 -37 21 0 35 10 60 44 42 60
280 266 306 266 4 0 5 -16 2 -35 -5 -31 -45 -107 -97 -185 -23 -35 -29 -55
-22 -67 13 -20 57 -2 85 35 36 48 228 242 239 242 4 0 8 -2 8 -4 0 -9 -47
-103 -64 -128 -22 -33 -39 -103 -31 -128 3 -10 19 -21 34 -25 43 -9 159 22
224 60 l58 35 10 -24 c6 -13 30 -34 53 -47 57 -33 155 -31 248 4 90 35 118 54
118 84 l0 24 -42 -25 c-74 -43 -220 -70 -272 -50 -27 10 -18 22 41 56 63 37
91 80 114 175 17 72 7 89 -50 85 -75 -5 -167 -90 -222 -207 -11 -22 -38 -41
-109 -78 -98 -49 -142 -57 -148 -25 -4 20 28 89 83 183 34 59 45 117 25 130
-13 8 -64 -23 -155 -96 l-73 -57 5 62 c4 38 1 66 -5 70 -21 13 -157 -64 -241
-136 -24 -21 -50 -38 -57 -38 -15 0 -11 14 26 94 23 51 26 86 8 104 -18 18
-23 15 -52 -29z m914 -48 c0 -59 -138 -206 -167 -178 -11 12 31 88 78 141 36
40 62 59 87 65 1 1 2 -12 2 -28z"/>
<path d="M7552 2182 c-65 -18 -140 -71 -127 -91 9 -16 51 -13 65 3 12 15 77
39 137 51 26 5 34 2 48 -19 15 -23 15 -27 -6 -68 -40 -81 -68 -108 -152 -149
-54 -26 -95 -39 -122 -39 -44 0 -65 -13 -65 -42 0 -28 27 -33 79 -14 25 9 54
16 63 16 16 0 87 39 150 82 36 24 38 23 38 -10 0 -62 52 -92 162 -92 63 0 169
30 208 60 39 29 19 33 -68 11 -124 -32 -231 -25 -246 15 -19 50 73 165 169
210 58 28 83 30 99 9 10 -14 14 -14 30 -2 14 10 17 21 12 40 -6 25 -10 27 -62
27 -68 0 -111 -18 -172 -70 l-47 -40 -7 52 c-4 32 -13 57 -24 65 -23 17 -84
15 -162 -5z"/>
</g>
</svg>
